/* XPM */
static const char *readwrite_readonly[] = {
"16 16 2 1 0 0",
"  c #000000",
"! c None",
"!!   !!!!!!!!!!!",
"!  !  !!!!!!!!!!",
"! !!! !!!!   !!!",
"! !!! !!!  !  !!",
"! !!! !!! !!! !!",
"!!!!!!!!! !!! !!",
"!!!!!!!!! !!! !!",
"       !       !",
"       !       !",
"       !       !",
"       !       !",
"       !       !",
"       !       !",
"!!!!!!!!!!!!!!!!",
"!!!!!!!!!!!!!!!!",
"!!!!!!!!!!!!!!!!"
};
