/* XPM */
static const char *readonly_readwrite[] = {
"16 16 2 1 0 0",
"  c #000000",
"! c None",
"!!!!!!!!!!   !!!",
"!!!!!!!!!  !  !!",
"!!   !!!! !!! !!",
"!  !  !!! !!! !!",
"! !!! !!! !!! !!",
"! !!! !!!!!!!!!!",
"! !!! !!!!!!!!!!",
"       !       !",
"       !       !",
"       !       !",
"       !       !",
"       !       !",
"       !       !",
"!!!!!!!!!!!!!!!!",
"!!!!!!!!!!!!!!!!",
"!!!!!!!!!!!!!!!!"
};
